<?xml version="1.0" encoding="UTF-8" standalone="no"?>
<!DOCTYPE svg PUBLIC "-//W3C//DTD SVG 1.1//EN"
 "http://www.w3.org/Graphics/SVG/1.1/DTD/svg11.dtd">
<!-- Generated by graphviz version 2.40.1 (20161225.0304)
 -->
<!-- Title: G Pages: 1 -->
<svg width="445pt" height="855pt"
 viewBox="0.00 0.00 445.40 855.48" xmlns="http://www.w3.org/2000/svg" xmlns:xlink="http://www.w3.org/1999/xlink">
<g id="graph0" class="graph" transform="scale(1 1) rotate(0) translate(7.2 848.2803)">
<title>G</title>
<polygon fill="#ffffff" stroke="transparent" points="-7.2,7.2 -7.2,-848.2803 438.2,-848.2803 438.2,7.2 -7.2,7.2"/>
<g id="clust2" class="cluster">
<title>cluster_Transactors</title>
<polygon fill="none" stroke="#000000" points="8,-609.0803 8,-761.0803 193,-761.0803 193,-609.0803 8,-609.0803"/>
<text text-anchor="middle" x="100.5" y="-748.2803" font-family="monospace" font-size="11.00" fill="#000000">Transactors (syncronized)</text>
</g>
<g id="clust3" class="cluster">
<title>cluster_Effects</title>
<polygon fill="none" stroke="#000000" points="201,-465.0803 201,-681.0803 361,-681.0803 361,-465.0803 201,-465.0803"/>
<text text-anchor="middle" x="281" y="-668.2803" font-family="monospace" font-size="11.00" fill="#000000">Effects Processors</text>
</g>
<g id="clust4" class="cluster">
<title>cluster_Queue</title>
<polygon fill="none" stroke="#000000" points="136,-312.0803 136,-457.0803 362,-457.0803 362,-312.0803 136,-312.0803"/>
<text text-anchor="middle" x="249" y="-444.2803" font-family="monospace" font-size="11.00" fill="#000000">Event Dispatcher (synchronized)</text>
</g>
<g id="clust5" class="cluster">
<title>cluster_State</title>
<polygon fill="none" stroke="#000000" points="199,-8 199,-152 423,-152 423,-8 199,-8"/>
<text text-anchor="middle" x="311" y="-139.2" font-family="monospace" font-size="11.00" fill="#000000">State</text>
</g>
<g id="clust6" class="cluster">
<title>cluster_Reducers</title>
<polygon fill="none" stroke="#000000" points="162,-160 162,-304.0803 322,-304.0803 322,-160 162,-160"/>
<text text-anchor="middle" x="242" y="-291.2803" font-family="monospace" font-size="11.00" fill="#000000">Reducers (pure)</text>
</g>
<g id="clust7" class="cluster">
<title>cluster_Consumers</title>
<polygon fill="none" stroke="#000000" points="268,-689.0803 268,-833.0803 376,-833.0803 376,-689.0803 268,-689.0803"/>
<text text-anchor="middle" x="322" y="-820.2803" font-family="monospace" font-size="11.00" fill="#000000">Consumers</text>
</g>
<!-- ExternalSystem -->
<g id="node1" class="node">
<title>ExternalSystem</title>
<ellipse fill="none" stroke="#000000" cx="118" cy="-715.0803" rx="66.9979" ry="18"/>
<text text-anchor="middle" x="118" y="-712.2803" font-family="monospace" font-size="11.00" fill="#000000">ExternalSystem</text>
</g>
<!-- T -->
<g id="node2" class="node">
<title>T</title>
<ellipse fill="none" stroke="#000000" cx="118" cy="-635.0803" rx="18" ry="18"/>
<text text-anchor="middle" x="118" y="-632.2803" font-family="monospace" font-size="11.00" fill="#000000">T</text>
</g>
<!-- ExternalSystem&#45;&gt;T -->
<g id="edge2" class="edge">
<title>ExternalSystem&#45;&gt;T</title>
<path fill="none" stroke="#000000" d="M112.2392,-696.927C111.2167,-686.7958 110.9869,-673.9673 111.5498,-662.6235"/>
<polygon fill="#000000" stroke="#000000" points="112.3323,-652.339 116.0605,-662.6517 111.9529,-657.3246 111.5735,-662.3102 111.5735,-662.3102 111.5735,-662.3102 111.9529,-657.3246 107.0865,-661.9688 112.3323,-652.339 112.3323,-652.339"/>
</g>
<!-- T&#45;&gt;ExternalSystem -->
<g id="edge1" class="edge">
<title>T&#45;&gt;ExternalSystem</title>
<path fill="none" stroke="#000000" d="M123.6677,-652.339C124.7483,-662.4093 125.0197,-675.3594 124.482,-686.8766"/>
<polygon fill="#000000" stroke="#000000" points="123.7608,-696.927 119.9882,-686.6305 124.1187,-691.9399 124.4767,-686.9527 124.4767,-686.9527 124.4767,-686.9527 124.1187,-691.9399 128.9651,-687.2748 123.7608,-696.927 123.7608,-696.927"/>
</g>
<!-- P0 -->
<g id="node5" class="node">
<title>P0</title>
<ellipse fill="none" stroke="#000000" cx="227" cy="-563.0803" rx="18" ry="18"/>
<text text-anchor="middle" x="227" y="-560.2803" font-family="monospace" font-size="11.00" fill="#000000">P</text>
</g>
<!-- T&#45;&gt;P0 -->
<g id="edge10" class="edge">
<title>T&#45;&gt;P0</title>
<path fill="none" stroke="#000000" stroke-dasharray="1,5" d="M134.5139,-627.0999C153.5451,-616.1433 184.3618,-596.1248 205.2613,-581.38"/>
<polygon fill="#000000" stroke="#000000" points="213.5478,-575.4255 208.0529,-584.9154 209.4874,-578.3433 205.427,-581.261 205.427,-581.261 205.427,-581.261 209.4874,-578.3433 202.801,-577.6066 213.5478,-575.4255 213.5478,-575.4255"/>
</g>
<!-- CommandApi -->
<g id="node3" class="node">
<title>CommandApi</title>
<ellipse fill="none" stroke="#000000" cx="291" cy="-635.0803" rx="50.5248" ry="18"/>
<text text-anchor="middle" x="291" y="-632.2803" font-family="monospace" font-size="11.00" fill="#000000">CommandApi</text>
</g>
<!-- CommandApi&#45;&gt;P0 -->
<g id="edge3" class="edge">
<title>CommandApi&#45;&gt;P0</title>
<path fill="none" stroke="#000000" d="M275.5074,-617.6511C266.6635,-607.7017 255.5031,-595.1463 246.1175,-584.5875"/>
<polygon fill="#000000" stroke="#000000" points="239.3541,-576.9786 249.3611,-581.4631 242.6759,-580.7156 245.9977,-584.4527 245.9977,-584.4527 245.9977,-584.4527 242.6759,-580.7156 242.6344,-587.4424 239.3541,-576.9786 239.3541,-576.9786"/>
</g>
<!-- P1 -->
<g id="node6" class="node">
<title>P1</title>
<ellipse fill="none" stroke="#000000" cx="281" cy="-563.0803" rx="18" ry="18"/>
<text text-anchor="middle" x="281" y="-560.2803" font-family="monospace" font-size="11.00" fill="#000000">P</text>
</g>
<!-- CommandApi&#45;&gt;P1 -->
<g id="edge5" class="edge">
<title>CommandApi&#45;&gt;P1</title>
<path fill="none" stroke="#000000" stroke-dasharray="1,5" d="M288.4766,-616.9116C287.3906,-609.0928 286.0961,-599.7725 284.892,-591.1024"/>
<polygon fill="#000000" stroke="#000000" points="283.488,-580.9937 289.321,-590.2795 284.1759,-585.9461 284.8637,-590.8986 284.8637,-590.8986 284.8637,-590.8986 284.1759,-585.9461 280.4065,-591.5177 283.488,-580.9937 283.488,-580.9937"/>
</g>
<!-- P2 -->
<g id="node7" class="node">
<title>P2</title>
<ellipse fill="none" stroke="#000000" cx="335" cy="-563.0803" rx="18" ry="18"/>
<text text-anchor="middle" x="335" y="-560.2803" font-family="monospace" font-size="11.00" fill="#000000">P</text>
</g>
<!-- CommandApi&#45;&gt;P2 -->
<g id="edge7" class="edge">
<title>CommandApi&#45;&gt;P2</title>
<path fill="none" stroke="#000000" stroke-dasharray="1,5" d="M301.8764,-617.2825C307.4099,-608.2277 314.2174,-597.0881 320.2189,-587.2675"/>
<polygon fill="#000000" stroke="#000000" points="325.4442,-578.7171 324.0694,-589.5964 322.8369,-582.9835 320.2296,-587.2499 320.2296,-587.2499 320.2296,-587.2499 322.8369,-582.9835 316.3899,-584.9033 325.4442,-578.7171 325.4442,-578.7171"/>
</g>
<!-- M -->
<g id="node4" class="node">
<title>M</title>
<polygon fill="none" stroke="#000000" points="299,-509.0803 263,-509.0803 263,-473.0803 299,-473.0803 299,-509.0803"/>
<text text-anchor="middle" x="281" y="-488.2803" font-family="monospace" font-size="11.00" fill="#000000">M</text>
</g>
<!-- Queue -->
<g id="node8" class="node">
<title>Queue</title>
<polygon fill="none" stroke="#000000" points="221.5,-392.5803 221.5,-428.5803 340.5,-428.5803 340.5,-392.5803 221.5,-392.5803"/>
<text text-anchor="middle" x="246.5" y="-407.7803" font-family="monospace" font-size="11.00" fill="#000000">Queue</text>
<polyline fill="none" stroke="#000000" points="271.5,-392.5803 271.5,-428.5803 "/>
<text text-anchor="middle" x="283" y="-407.7803" font-family="monospace" font-size="11.00" fill="#000000"> </text>
<polyline fill="none" stroke="#000000" points="294.5,-392.5803 294.5,-428.5803 "/>
<text text-anchor="middle" x="306" y="-407.7803" font-family="monospace" font-size="11.00" fill="#000000"> </text>
<polyline fill="none" stroke="#000000" points="317.5,-392.5803 317.5,-428.5803 "/>
<text text-anchor="middle" x="329" y="-407.7803" font-family="monospace" font-size="11.00" fill="#000000"> </text>
</g>
<!-- M&#45;&gt;Queue -->
<g id="edge21" class="edge">
<title>M&#45;&gt;Queue</title>
<path fill="none" stroke="#000000" d="M281,-472.8136C281,-462.8299 281,-450.2433 281,-439.006"/>
<polygon fill="#000000" stroke="#000000" points="281,-428.7747 285.5001,-438.7746 281,-433.7747 281.0001,-438.7747 281.0001,-438.7747 281.0001,-438.7747 281,-433.7747 276.5001,-438.7747 281,-428.7747 281,-428.7747"/>
</g>
<!-- P0&#45;&gt;T -->
<g id="edge9" class="edge">
<title>P0&#45;&gt;T</title>
<path fill="none" stroke="#000000" stroke-dasharray="1,5" d="M210.7653,-570.9C191.713,-581.8462 160.5953,-602.0579 139.5913,-616.8846"/>
<polygon fill="#000000" stroke="#000000" points="131.2734,-622.8664 136.7646,-613.3745 135.3327,-619.9472 139.392,-617.0279 139.392,-617.0279 139.392,-617.0279 135.3327,-619.9472 142.0193,-620.6812 131.2734,-622.8664 131.2734,-622.8664"/>
</g>
<!-- P0&#45;&gt;M -->
<g id="edge4" class="edge">
<title>P0&#45;&gt;M</title>
<path fill="none" stroke="#000000" d="M237.9277,-548.51C244.6393,-539.5611 253.4342,-527.8346 261.3258,-517.3125"/>
<polygon fill="#000000" stroke="#000000" points="267.404,-509.2082 265.004,-519.9083 264.404,-513.2082 261.404,-517.2083 261.404,-517.2083 261.404,-517.2083 264.404,-513.2082 257.804,-514.5082 267.404,-509.2082 267.404,-509.2082"/>
</g>
<!-- P1&#45;&gt;M -->
<g id="edge6" class="edge">
<title>P1&#45;&gt;M</title>
<path fill="none" stroke="#000000" stroke-dasharray="1,5" d="M281,-544.9116C281,-537.2112 281,-528.0546 281,-519.4969"/>
<polygon fill="#000000" stroke="#000000" points="281,-509.4935 285.5001,-519.4935 281,-514.4935 281.0001,-519.4935 281.0001,-519.4935 281.0001,-519.4935 281,-514.4935 276.5001,-519.4936 281,-509.4935 281,-509.4935"/>
</g>
<!-- P2&#45;&gt;M -->
<g id="edge8" class="edge">
<title>P2&#45;&gt;M</title>
<path fill="none" stroke="#000000" stroke-dasharray="1,5" d="M324.0723,-548.51C317.3607,-539.5611 308.5658,-527.8346 300.6742,-517.3125"/>
<polygon fill="#000000" stroke="#000000" points="294.596,-509.2082 304.196,-514.5082 297.596,-513.2082 300.596,-517.2083 300.596,-517.2083 300.596,-517.2083 297.596,-513.2082 296.996,-519.9083 294.596,-509.2082 294.596,-509.2082"/>
</g>
<!-- E -->
<g id="node9" class="node">
<title>E</title>
<polygon fill="none" stroke="#000000" points="251,-356.0803 215,-356.0803 215,-320.0803 251,-320.0803 251,-356.0803"/>
<text text-anchor="middle" x="233" y="-335.2803" font-family="monospace" font-size="11.00" fill="#000000">E</text>
</g>
<!-- Queue&#45;&gt;E -->
<g id="edge12" class="edge">
<title>Queue&#45;&gt;E</title>
<path fill="none" stroke="#000000" d="M268.8876,-392.2855C263.3313,-383.8932 256.6378,-373.7832 250.5441,-364.5792"/>
<polygon fill="#000000" stroke="#000000" points="244.9423,-356.1181 254.2149,-361.972 247.7025,-360.2872 250.4628,-364.4562 250.4628,-364.4562 250.4628,-364.4562 247.7025,-360.2872 246.7106,-366.9405 244.9423,-356.1181 244.9423,-356.1181"/>
</g>
<!-- EventStore -->
<g id="node10" class="node">
<title>EventStore</title>
<path fill="none" stroke="#000000" d="M353,-352.8075C353,-354.6134 334.1749,-356.0803 311,-356.0803 287.8251,-356.0803 269,-354.6134 269,-352.8075 269,-352.8075 269,-323.353 269,-323.353 269,-321.5472 287.8251,-320.0803 311,-320.0803 334.1749,-320.0803 353,-321.5472 353,-323.353 353,-323.353 353,-352.8075 353,-352.8075"/>
<path fill="none" stroke="#000000" d="M353,-352.8075C353,-351.0017 334.1749,-349.5348 311,-349.5348 287.8251,-349.5348 269,-351.0017 269,-352.8075"/>
<text text-anchor="middle" x="311" y="-335.2803" font-family="monospace" font-size="11.00" fill="#000000">EventStore</text>
</g>
<!-- Queue&#45;&gt;EventStore -->
<g id="edge11" class="edge">
<title>Queue&#45;&gt;EventStore</title>
<path fill="none" stroke="#000000" d="M288.5703,-392.2855C293.1528,-381.2111 298.9729,-367.1457 303.5361,-356.1181"/>
</g>
<!-- R₀ -->
<g id="node17" class="node">
<title>R₀</title>
<ellipse fill="none" stroke="#000000" cx="296" cy="-258.0401" rx="18.0804" ry="18.0804"/>
<text text-anchor="middle" x="296" y="-255.2401" font-family="monospace" font-size="11.00" fill="#000000">R₀</text>
</g>
<!-- E&#45;&gt;R₀ -->
<g id="edge22" class="edge">
<title>E&#45;&gt;R₀</title>
<path fill="none" stroke="#000000" d="M251.2059,-320.3586C254.1284,-317.5689 257.134,-314.732 260,-312.0803 263.9283,-308.4456 265.6046,-308.2171 269,-304.0803 274.0925,-297.8757 278.8301,-290.5985 282.8699,-283.685"/>
<polygon fill="#000000" stroke="#000000" points="287.914,-274.6179 286.985,-285.5444 285.4833,-278.9873 283.0525,-283.3567 283.0525,-283.3567 283.0525,-283.3567 285.4833,-278.9873 279.1201,-281.169 287.914,-274.6179 287.914,-274.6179"/>
</g>
<!-- R₁ -->
<g id="node18" class="node">
<title>R₁</title>
<ellipse fill="none" stroke="#000000" cx="242" cy="-258.0401" rx="18.0804" ry="18.0804"/>
<text text-anchor="middle" x="242" y="-255.2401" font-family="monospace" font-size="11.00" fill="#000000">R₁</text>
</g>
<!-- E&#45;&gt;R₁ -->
<g id="edge23" class="edge">
<title>E&#45;&gt;R₁</title>
<path fill="none" stroke="#000000" d="M235.0422,-319.9179C236.1584,-309.9913 237.5656,-297.4766 238.822,-286.3035"/>
<polygon fill="#000000" stroke="#000000" points="239.9658,-276.1306 243.3202,-286.5708 239.4071,-281.0993 238.8484,-286.068 238.8484,-286.068 238.8484,-286.068 239.4071,-281.0993 234.3765,-285.5651 239.9658,-276.1306 239.9658,-276.1306"/>
</g>
<!-- R₂ -->
<g id="node19" class="node">
<title>R₂</title>
<ellipse fill="none" stroke="#000000" cx="188" cy="-258.0401" rx="18.0804" ry="18.0804"/>
<text text-anchor="middle" x="188" y="-255.2401" font-family="monospace" font-size="11.00" fill="#000000">R₂</text>
</g>
<!-- E&#45;&gt;R₂ -->
<g id="edge24" class="edge">
<title>E&#45;&gt;R₂</title>
<path fill="none" stroke="#000000" d="M222.7888,-319.9179C216.6504,-308.9996 208.7516,-294.9503 202.0324,-282.9991"/>
<polygon fill="#000000" stroke="#000000" points="196.9528,-273.9642 205.7761,-280.4756 199.4032,-278.3226 201.8536,-282.681 201.8536,-282.681 201.8536,-282.681 199.4032,-278.3226 197.931,-284.8863 196.9528,-273.9642 196.9528,-273.9642"/>
</g>
<!-- StateStore -->
<g id="node11" class="node">
<title>StateStore</title>
<path fill="none" stroke="#000000" d="M301,-120.7273C301,-122.5331 282.1749,-124 259,-124 235.8251,-124 217,-122.5331 217,-120.7273 217,-120.7273 217,-91.2727 217,-91.2727 217,-89.4669 235.8251,-88 259,-88 282.1749,-88 301,-89.4669 301,-91.2727 301,-91.2727 301,-120.7273 301,-120.7273"/>
<path fill="none" stroke="#000000" d="M301,-120.7273C301,-118.9214 282.1749,-117.4545 259,-117.4545 235.8251,-117.4545 217,-118.9214 217,-120.7273"/>
<text text-anchor="middle" x="259" y="-103.2" font-family="monospace" font-size="11.00" fill="#000000">StateStore</text>
</g>
<!-- QueryAPI -->
<g id="node12" class="node">
<title>QueryAPI</title>
<ellipse fill="none" stroke="#000000" cx="372" cy="-34" rx="42.8909" ry="18"/>
<text text-anchor="middle" x="372" y="-31.2" font-family="monospace" font-size="11.00" fill="#000000">QueryAPI</text>
</g>
<!-- StateStore&#45;&gt;QueryAPI -->
<g id="edge13" class="edge">
<title>StateStore&#45;&gt;QueryAPI</title>
<path fill="none" stroke="#000000" d="M286.9326,-88.2022C302.8142,-78.083 322.7825,-65.3598 339.3809,-54.7839"/>
<polygon fill="#000000" stroke="#000000" points="348.2082,-49.1594 342.1927,-58.3281 343.9914,-51.8462 339.7746,-54.533 339.7746,-54.533 339.7746,-54.533 343.9914,-51.8462 337.3565,-50.7379 348.2082,-49.1594 348.2082,-49.1594"/>
</g>
<!-- SnapshotStore -->
<g id="node13" class="node">
<title>SnapshotStore</title>
<path fill="none" stroke="#000000" d="M311,-48.7273C311,-50.5331 287.6928,-52 259,-52 230.3072,-52 207,-50.5331 207,-48.7273 207,-48.7273 207,-19.2727 207,-19.2727 207,-17.4669 230.3072,-16 259,-16 287.6928,-16 311,-17.4669 311,-19.2727 311,-19.2727 311,-48.7273 311,-48.7273"/>
<path fill="none" stroke="#000000" d="M311,-48.7273C311,-46.9214 287.6928,-45.4545 259,-45.4545 230.3072,-45.4545 207,-46.9214 207,-48.7273"/>
<text text-anchor="middle" x="259" y="-31.2" font-family="monospace" font-size="11.00" fill="#000000">SnapshotStore</text>
</g>
<!-- StateStore&#45;&gt;SnapshotStore -->
<g id="edge14" class="edge">
<title>StateStore&#45;&gt;SnapshotStore</title>
<path fill="none" stroke="#000000" d="M259,-87.8314C259,-77 259,-63.2876 259,-52.4133"/>
</g>
<!-- MobileApp -->
<g id="node20" class="node">
<title>MobileApp</title>
<ellipse fill="none" stroke="#000000" cx="322" cy="-787.0803" rx="46.1069" ry="18"/>
<text text-anchor="middle" x="322" y="-784.2803" font-family="monospace" font-size="11.00" fill="#000000">MobileApp</text>
</g>
<!-- QueryAPI&#45;&gt;MobileApp -->
<g id="edge25" class="edge">
<title>QueryAPI&#45;&gt;MobileApp</title>
<path fill="none" stroke="#000000" d="M373.7781,-52.2293C376.401,-80.7382 381,-137.6238 381,-186 381,-635.0803 381,-635.0803 381,-635.0803 381,-681.5681 356.7194,-730.9644 339.3107,-760.4062"/>
<polygon fill="#000000" stroke="#000000" points="333.9395,-769.2351 335.2925,-758.353 336.5383,-764.9635 339.137,-760.6919 339.137,-760.6919 339.137,-760.6919 336.5383,-764.9635 342.9815,-763.0308 333.9395,-769.2351 333.9395,-769.2351"/>
</g>
<!-- S₀ -->
<g id="node14" class="node">
<title>S₀</title>
<polygon fill="none" stroke="#000000" points="314,-204 278,-204 278,-168 314,-168 314,-204"/>
<text text-anchor="middle" x="296" y="-183.2" font-family="monospace" font-size="11.00" fill="#000000">S₀</text>
</g>
<!-- S₀&#45;&gt;StateStore -->
<g id="edge15" class="edge">
<title>S₀&#45;&gt;StateStore</title>
<path fill="none" stroke="#000000" d="M287.6041,-167.8468C282.8734,-157.6183 276.8712,-144.6405 271.5879,-133.217"/>
<polygon fill="#000000" stroke="#000000" points="267.3626,-124.0814 275.6448,-131.2687 269.4616,-128.6195 271.5605,-133.1577 271.5605,-133.1577 271.5605,-133.1577 269.4616,-128.6195 267.4762,-135.0467 267.3626,-124.0814 267.3626,-124.0814"/>
</g>
<!-- S₁ -->
<g id="node15" class="node">
<title>S₁</title>
<polygon fill="none" stroke="#000000" points="260,-204 224,-204 224,-168 260,-168 260,-204"/>
<text text-anchor="middle" x="242" y="-183.2" font-family="monospace" font-size="11.00" fill="#000000">S₁</text>
</g>
<!-- S₁&#45;&gt;StateStore -->
<g id="edge16" class="edge">
<title>S₁&#45;&gt;StateStore</title>
<path fill="none" stroke="#000000" d="M245.8576,-167.8468C247.9876,-157.8228 250.6788,-145.1585 253.0703,-133.9043"/>
<polygon fill="#000000" stroke="#000000" points="255.1577,-124.0814 257.4808,-134.7984 254.1184,-128.9722 253.079,-133.863 253.079,-133.863 253.079,-133.863 254.1184,-128.9722 248.6773,-132.9276 255.1577,-124.0814 255.1577,-124.0814"/>
</g>
<!-- S₂ -->
<g id="node16" class="node">
<title>S₂</title>
<polygon fill="none" stroke="#000000" points="206,-204 170,-204 170,-168 206,-168 206,-204"/>
<text text-anchor="middle" x="188" y="-183.2" font-family="monospace" font-size="11.00" fill="#000000">S₂</text>
</g>
<!-- S₂&#45;&gt;StateStore -->
<g id="edge17" class="edge">
<title>S₂&#45;&gt;StateStore</title>
<path fill="none" stroke="#000000" d="M204.111,-167.8468C213.5519,-157.2091 225.6319,-143.5978 236.0546,-131.854"/>
<polygon fill="#000000" stroke="#000000" points="242.9528,-124.0814 239.6806,-134.5477 239.6338,-127.821 236.3149,-131.5607 236.3149,-131.5607 236.3149,-131.5607 239.6338,-127.821 232.9492,-128.5736 242.9528,-124.0814 242.9528,-124.0814"/>
</g>
<!-- R₀&#45;&gt;S₀ -->
<g id="edge18" class="edge">
<title>R₀&#45;&gt;S₀</title>
<path fill="none" stroke="#000000" d="M296,-239.8614C296,-232.0974 296,-222.8539 296,-214.235"/>
<polygon fill="#000000" stroke="#000000" points="296,-204.173 300.5001,-214.1729 296,-209.173 296.0001,-214.173 296.0001,-214.173 296.0001,-214.173 296,-209.173 291.5001,-214.173 296,-204.173 296,-204.173"/>
</g>
<!-- R₁&#45;&gt;S₁ -->
<g id="edge19" class="edge">
<title>R₁&#45;&gt;S₁</title>
<path fill="none" stroke="#000000" d="M242,-239.8614C242,-232.0974 242,-222.8539 242,-214.235"/>
<polygon fill="#000000" stroke="#000000" points="242,-204.173 246.5001,-214.1729 242,-209.173 242.0001,-214.173 242.0001,-214.173 242.0001,-214.173 242,-209.173 237.5001,-214.173 242,-204.173 242,-204.173"/>
</g>
<!-- R₂&#45;&gt;S₂ -->
<g id="edge20" class="edge">
<title>R₂&#45;&gt;S₂</title>
<path fill="none" stroke="#000000" d="M188,-239.8614C188,-232.0974 188,-222.8539 188,-214.235"/>
<polygon fill="#000000" stroke="#000000" points="188,-204.173 192.5001,-214.1729 188,-209.173 188.0001,-214.173 188.0001,-214.173 188.0001,-214.173 188,-209.173 183.5001,-214.173 188,-204.173 188,-204.173"/>
</g>
<!-- C -->
<g id="node21" class="node">
<title>C</title>
<polygon fill="none" stroke="#000000" points="326,-733.0803 290,-733.0803 290,-697.0803 326,-697.0803 326,-733.0803"/>
<text text-anchor="middle" x="308" y="-712.2803" font-family="monospace" font-size="11.00" fill="#000000">C</text>
</g>
<!-- MobileApp&#45;&gt;C -->
<g id="edge26" class="edge">
<title>MobileApp&#45;&gt;C</title>
<path fill="none" stroke="#000000" d="M318.4672,-768.9116C316.9699,-761.2112 315.1895,-752.0546 313.5255,-743.4969"/>
<polygon fill="#000000" stroke="#000000" points="311.5804,-733.4935 317.9064,-742.4507 312.5347,-738.4016 313.4891,-743.3097 313.4891,-743.3097 313.4891,-743.3097 312.5347,-738.4016 309.0719,-744.1686 311.5804,-733.4935 311.5804,-733.4935"/>
</g>
<!-- C&#45;&gt;CommandApi -->
<g id="edge27" class="edge">
<title>C&#45;&gt;CommandApi</title>
<path fill="none" stroke="#000000" d="M304.1424,-696.927C302.0124,-686.9031 299.3212,-674.2387 296.9297,-662.9845"/>
<polygon fill="#000000" stroke="#000000" points="294.8423,-653.1617 301.3227,-662.0079 295.8816,-658.0525 296.921,-662.9433 296.921,-662.9433 296.921,-662.9433 295.8816,-658.0525 292.5192,-663.8787 294.8423,-653.1617 294.8423,-653.1617"/>
</g>
</g>
</svg>
